# xmcd
#
# Track frame offsets:
#	150
#	19750
#	45230
#	62613
#	84076
#	99461
#	116783
#	136851
#	163671
#
# Disc length: 2488 seconds
#
# Revision: 1
# Processed by: cddbd v1.4PL0 Copyright (c) Steve Scherf et al.
# Submitted via: CDmax 1.9
#
DISCID=6409b609
DTITLE=Phil Keaggy - Songs About What Matters
DYEAR=2001
DGENRE=Blues
TTITLE0=A Sign Came Through The Window
TTITLE1=World of Mine
TTITLE2=Days Like You
TTITLE3=Chase The Bad Away
TTITLE4=Tell Me How You Feel
TTITLE5=All There Is To Know
TTITLE6=Everywhere I Look
TTITLE7=Shouts of Joy
TTITLE8=What Matters
EXTD=
EXTT0=
EXTT1=
EXTT2=
EXTT3=
EXTT4=
EXTT5=
EXTT6=
EXTT7=
EXTT8=
PLAYORDER=
